<svg width="24" height="24" viewBox="0 0 24 24" fill="none" xmlns="http://www.w3.org/2000/svg">
<path d="M8.10858 12C8.10858 9.89453 9.81525 8.25 12.0003 8.25C14.1488 8.25 15.892 9.89453 15.892 12C15.892 14.0703 14.1488 15.75 12.0003 15.75C9.81525 15.75 8.10858 14.0703 8.10858 12ZM12.0003 10.125C10.926 10.125 10.0544 10.9648 10.0544 12C10.0544 13.0352 10.926 13.875 12.0003 13.875C13.0745 13.875 13.9461 13.0352 13.9461 12C13.9461 10.9648 13.0745 10.125 12.0003 10.125ZM13.5043 2.00001C14.4042 2.00001 15.1866 2.59336 15.3974 3.43516L15.7136 4.70352C16.0582 4.86562 16.3865 5.04961 16.6987 5.25312L18 4.88398C18.8634 4.63906 19.7877 4.99492 20.2377 5.74492L21.7417 8.25391C22.1876 9.00391 22.0457 9.95312 21.3971 10.5508L20.412 11.418C20.4242 11.6328 20.4323 11.8164 20.4323 12C20.4323 12.1836 20.4242 12.3672 20.412 12.5469L21.3971 13.4492C22.0457 14.0469 22.1876 14.9961 21.7417 15.7461L20.2377 18.2539C19.7877 19.0039 18.8634 19.3594 18 19.1172L16.6987 18.7461C16.3865 18.9492 16.0582 19.1328 15.7136 19.2969L15.3974 20.5664C15.1866 21.4062 14.4042 22 13.5043 22H10.4963C9.59634 22 8.81395 21.4062 8.60315 20.5664L8.28695 19.2969C7.94237 19.1328 7.61401 18.9492 7.30186 18.7461L5.96409 19.1172C5.13832 19.3594 4.21445 19.0039 3.76488 18.2539L2.2609 15.7461C1.81132 14.9961 1.95353 14.0469 2.60466 13.4492L3.58732 12.5469C3.57475 12.3672 3.56826 12.1836 3.56826 11.9648C3.56826 11.8164 3.57475 11.6328 3.58732 11.418L2.60466 10.5508C1.95349 9.95312 1.81132 9.00391 2.2609 8.25391L3.76488 5.74492C4.21445 4.99492 5.13832 4.63906 5.96409 4.88398L7.30186 5.25312C7.61401 5.04961 7.94237 4.86562 8.28695 4.70352L8.60315 3.43516C8.81395 2.59297 9.59634 2 10.4963 2L13.5043 2.00001ZM9.95308 6.04687L9.49905 6.23047C8.98421 6.4375 8.50585 6.70703 8.07209 7.02734L7.67887 7.31641L5.45006 6.68359L3.94568 9.19141L5.62802 10.7344L5.566 11.2031C5.53195 11.4648 5.51411 11.7305 5.51411 12C5.51411 12.2695 5.53195 12.5352 5.566 12.7969L5.62802 13.2656L3.94608 14.8086L5.45006 17.3164L7.67887 16.6836L8.07209 16.9727C8.50585 17.293 8.98421 17.5625 9.49905 17.7695L9.95308 17.9531L10.4963 20.125H13.5043L14.0475 17.9531L14.5015 17.7695C15.0163 17.5625 15.4947 17.293 15.9285 16.9727L16.3217 16.6836L18.5513 17.3164L20.0553 14.8086L18.3729 13.2656L18.4337 12.7969C18.4702 12.5352 18.4864 12.2695 18.4864 12C18.4864 11.7305 18.4702 11.4648 18.4337 11.2031L18.3729 10.7344L20.0553 9.19141L18.5513 6.68359L16.3217 7.31641L15.9285 7.02734C15.4947 6.70703 15.0163 6.4375 14.5015 6.23047L14.0475 6.04687L13.5043 3.875H10.4963L9.95308 6.04687Z" fill="white"/>
</svg>
