<svg width="24" height="24" viewBox="0 0 24 24" fill="none" xmlns="http://www.w3.org/2000/svg">
<path fill-rule="evenodd" clip-rule="evenodd" d="M12 3.56682C7.34248 3.56682 3.56682 7.34248 3.56682 12C3.56682 16.6575 7.34248 20.4332 12 20.4332C16.6575 20.4332 20.4332 16.6575 20.4332 12C20.4332 7.34248 16.6575 3.56682 12 3.56682ZM2 12C2 6.47715 6.47715 2 12 2C17.5228 2 22 6.47715 22 12C22 17.5228 17.5228 22 12 22C6.47715 22 2 17.5228 2 12ZM11.2166 8.31336C11.2166 7.8807 11.5673 7.52995 12 7.52995H12.0092C12.4419 7.52995 12.7926 7.8807 12.7926 8.31336C12.7926 8.74603 12.4419 9.09677 12.0092 9.09677H12C11.5673 9.09677 11.2166 8.74603 11.2166 8.31336ZM12 11.2166C12.4327 11.2166 12.7834 11.5673 12.7834 12V15.6866C12.7834 16.1193 12.4327 16.47 12 16.47C11.5673 16.47 11.2166 16.1193 11.2166 15.6866V12C11.2166 11.5673 11.5673 11.2166 12 11.2166Z" fill="white"/>
</svg>
