<svg width="24" height="24" viewBox="0 0 24 24" fill="none" xmlns="http://www.w3.org/2000/svg">
<path d="M11.1562 7.21875C11.1562 6.75117 11.5324 6.375 12 6.375C12.4676 6.375 12.8438 6.75117 12.8438 7.21875V11.55L15.8426 13.5469C16.2293 13.807 16.3348 14.3309 16.0465 14.7176C15.818 15.1043 15.2941 15.2098 14.9074 14.9215L11.5324 12.6715C11.2969 12.5449 11.1562 12.2813 11.1562 11.9684V7.21875ZM12 3C16.9711 3 21 7.02891 21 12C21 16.9711 16.9711 21 12 21C7.02891 21 3 16.9711 3 12C3 7.02891 7.02891 3 12 3ZM4.6875 12C4.6875 16.0395 7.96055 19.3125 12 19.3125C16.0395 19.3125 19.3125 16.0395 19.3125 12C19.3125 7.96055 16.0395 4.6875 12 4.6875C7.96055 4.6875 4.6875 7.96055 4.6875 12Z" fill="white"/>
</svg>
