<svg width="24" height="24" viewBox="0 0 24 24" fill="none" xmlns="http://www.w3.org/2000/svg">
<path d="M2.69231 22H21.3077V8.46154H2.69231V22ZM7.76923 5.92308V2.11538C7.76923 1.99199 7.72957 1.89062 7.65024 1.8113C7.57091 1.73197 7.46955 1.69231 7.34615 1.69231H6.5C6.3766 1.69231 6.27524 1.73197 6.19591 1.8113C6.11659 1.89062 6.07692 1.99199 6.07692 2.11538V5.92308C6.07692 6.04647 6.11659 6.14784 6.19591 6.22716C6.27524 6.30649 6.3766 6.34615 6.5 6.34615H7.34615C7.46955 6.34615 7.57091 6.30649 7.65024 6.22716C7.72957 6.14784 7.76923 6.04647 7.76923 5.92308ZM17.9231 5.92308V2.11538C17.9231 1.99199 17.8834 1.89062 17.8041 1.8113C17.7248 1.73197 17.6234 1.69231 17.5 1.69231H16.6538C16.5304 1.69231 16.4291 1.73197 16.3498 1.8113C16.2704 1.89062 16.2308 1.99199 16.2308 2.11538V5.92308C16.2308 6.04647 16.2704 6.14784 16.3498 6.22716C16.4291 6.30649 16.5304 6.34615 16.6538 6.34615H17.5C17.6234 6.34615 17.7248 6.30649 17.8041 6.22716C17.8834 6.14784 17.9231 6.04647 17.9231 5.92308ZM23 5.07692V22C23 22.4583 22.8325 22.855 22.4976 23.1899C22.1627 23.5248 21.766 23.6923 21.3077 23.6923H2.69231C2.23397 23.6923 1.83734 23.5248 1.5024 23.1899C1.16747 22.855 1 22.4583 1 22V5.07692C1 4.61859 1.16747 4.22195 1.5024 3.88702C1.83734 3.55208 2.23397 3.38462 2.69231 3.38462H4.38462V2.11538C4.38462 1.53365 4.59175 1.03566 5.00601 0.621394C5.42027 0.207131 5.91827 0 6.5 0H7.34615C7.92788 0 8.42588 0.207131 8.84014 0.621394C9.25441 1.03566 9.46154 1.53365 9.46154 2.11538V3.38462H14.5385V2.11538C14.5385 1.53365 14.7456 1.03566 15.1599 0.621394C15.5741 0.207131 16.0721 0 16.6538 0H17.5C18.0817 0 18.5797 0.207131 18.994 0.621394C19.4083 1.03566 19.6154 1.53365 19.6154 2.11538V3.38462H21.3077C21.766 3.38462 22.1627 3.55208 22.4976 3.88702C22.8325 4.22195 23 4.61859 23 5.07692Z" fill="white"/>
</svg>
