<svg width="24" height="24" viewBox="0 0 24 24" fill="none" xmlns="http://www.w3.org/2000/svg">
<path d="M11.108 16.7652C11.3571 17.0183 11.6865 17.1429 12.016 17.1429C12.3455 17.1429 12.6741 17.0173 12.9248 16.7662L18.3851 10.7233C19.5053 9.4808 18.6254 7.5 16.9539 7.5H15.2299V4.92857C15.2299 3.86344 14.3664 3 13.3013 3H10.7299C9.66475 3 8.80131 3.86344 8.80131 4.92857V7.5H7.06158C5.38895 7.5 4.50944 9.48362 5.63203 10.7235L11.108 16.7652ZM10.7303 9.42857V4.92857H13.3017V9.42857H16.8925L12.0148 14.9491L7.13872 9.42857H10.7303ZM18.7499 19.0714H5.24993C4.71756 19.0714 4.28564 19.5054 4.28564 20.0357C4.28564 20.5661 4.71756 21 5.24993 21H18.7499C19.2823 21 19.7142 20.5681 19.7142 20.0357C19.7142 19.5033 19.2843 19.0714 18.7499 19.0714Z" fill="white"/>
</svg>
