<svg width="24" height="24" viewBox="0 0 24 24" fill="none" xmlns="http://www.w3.org/2000/svg">
<path fill-rule="evenodd" clip-rule="evenodd" d="M2.46888 6.96888C2.53854 6.89904 2.62131 6.84362 2.71243 6.80581C2.80354 6.768 2.90122 6.74854 2.99988 6.74854C3.09853 6.74854 3.19621 6.768 3.28733 6.80581C3.37844 6.84362 3.46121 6.89904 3.53088 6.96888L11.9999 15.4394L20.4689 6.96888C20.5386 6.89915 20.6214 6.84384 20.7125 6.8061C20.8036 6.76836 20.9013 6.74894 20.9999 6.74894C21.0985 6.74894 21.1961 6.76836 21.2873 6.8061C21.3784 6.84384 21.4611 6.89915 21.5309 6.96888C21.6006 7.03861 21.6559 7.1214 21.6937 7.21251C21.7314 7.30362 21.7508 7.40127 21.7508 7.49988C21.7508 7.5985 21.7314 7.69615 21.6937 7.78726C21.6559 7.87837 21.6006 7.96115 21.5309 8.03088L12.5309 17.0309C12.4612 17.1007 12.3784 17.1561 12.2873 17.194C12.1962 17.2318 12.0985 17.2512 11.9999 17.2512C11.9012 17.2512 11.8035 17.2318 11.7124 17.194C11.6213 17.1561 11.5385 17.1007 11.4689 17.0309L2.46888 8.03088C2.39903 7.96121 2.34362 7.87845 2.30581 7.78733C2.268 7.69622 2.24854 7.59853 2.24854 7.49988C2.24854 7.40123 2.268 7.30355 2.30581 7.21243C2.34362 7.12131 2.39903 7.03855 2.46888 6.96888V6.96888Z" fill="white"/>
</svg>
