<svg width="24" height="24" viewBox="0 0 24 24" fill="none" xmlns="http://www.w3.org/2000/svg">
<path fill-rule="evenodd" clip-rule="evenodd" d="M6.96888 2.46888C7.03854 2.39904 7.12131 2.34362 7.21243 2.30581C7.30354 2.26801 7.40122 2.24854 7.49988 2.24854C7.59853 2.24854 7.69621 2.26801 7.78733 2.30581C7.87844 2.34362 7.96121 2.39904 8.03088 2.46888L17.0309 11.4689C17.1007 11.5386 17.1561 11.6213 17.1939 11.7124C17.2318 11.8036 17.2512 11.9012 17.2512 11.9999C17.2512 12.0985 17.2318 12.1962 17.1939 12.2873C17.1561 12.3785 17.1007 12.4612 17.0309 12.5309L8.03088 21.5309C7.89005 21.6717 7.69904 21.7508 7.49988 21.7508C7.30071 21.7508 7.10971 21.6717 6.96888 21.5309C6.82805 21.3901 6.74893 21.199 6.74893 20.9999C6.74893 20.8007 6.82805 20.6097 6.96888 20.4689L15.4394 11.9999L6.96888 3.53088C6.89903 3.46122 6.84362 3.37845 6.80581 3.28733C6.768 3.19622 6.74854 3.09853 6.74854 2.99988C6.74854 2.90123 6.768 2.80355 6.80581 2.71243C6.84362 2.62132 6.89903 2.53855 6.96888 2.46888V2.46888Z" fill="white"/>
</svg>
