<svg width="24" height="24" viewBox="0 0 24 24" fill="none" xmlns="http://www.w3.org/2000/svg">
<g clip-path="url(#clip0_3636_7905)">
<path d="M5.67188 22L7.09375 20.5781L3.42188 16.9062L2 18.3281V20H4V22H5.67188ZM13.8438 7.5C13.8438 7.27083 13.7292 7.15625 13.5 7.15625C13.3958 7.15625 13.3073 7.19271 13.2344 7.26562L4.76562 15.7344C4.69271 15.8073 4.65625 15.8958 4.65625 16C4.65625 16.2292 4.77083 16.3438 5 16.3438C5.10417 16.3438 5.19271 16.3073 5.26562 16.2344L13.7344 7.76562C13.8073 7.69271 13.8438 7.60417 13.8438 7.5ZM13 4.5L19.5 11L6.5 24H0V17.5L13 4.5ZM23.6719 6C23.6719 6.55208 23.4792 7.02083 23.0938 7.40625L20.5 10L14 3.5L16.5938 0.921875C16.9688 0.526042 17.4375 0.328125 18 0.328125C18.5521 0.328125 19.026 0.526042 19.4219 0.921875L23.0938 4.57812C23.4792 4.98438 23.6719 5.45833 23.6719 6Z" fill="black"/>
</g>
<defs>
<clipPath id="clip0_3636_7905">
<rect width="24" height="24" fill="orange"/>
</clipPath>
</defs>
</svg>
