<svg width="24" height="24" viewBox="0 0 24 24" fill="none" xmlns="http://www.w3.org/2000/svg">
<path d="M10 17C10 18.6562 8.65625 20 7 20C5.31562 20 4 18.6562 4 17C2.89531 17 2 16.1031 2 15V6C2 4.89531 2.89531 4 4 4H13C14.1031 4 15 4.89531 15 6V7H16.3344C16.8 7 17.2437 7.18438 17.5719 7.5125L20.4875 10.4281C20.8156 10.7562 21 11.2 21 11.6656V15.5H21.25C21.6656 15.5 22 15.8344 22 16.25C22 16.6656 21.6656 17 21.25 17H20C20 18.6562 18.6562 20 17 20C15.3156 20 14 18.6562 14 17H10ZM13 5.5H8H4C3.72375 5.5 3.5 5.72375 3.5 6V15C3.5 15.275 3.72375 15.5 4 15.5H4.40125C4.92 14.6031 5.89062 14 7 14C8.10938 14 9.08125 14.6031 9.6 15.5H13C13.275 15.5 13.5 15.275 13.5 15V6C13.5 5.72375 13.275 5.5 13 5.5ZM16.5125 8.57188C16.4656 8.525 16.4031 8.5 16.3344 8.5H15V11.5H19.4375C19.4344 11.4969 19.4313 11.4906 19.4281 11.4875L16.5125 8.57188ZM7 15.5C6.17188 15.5 5.5 16.1719 5.5 17C5.5 17.8281 6.17188 18.5 7 18.5C7.82812 18.5 8.5 17.8281 8.5 17C8.5 16.1719 7.82812 15.5 7 15.5ZM17 18.5C17.8281 18.5 18.5 17.8281 18.5 17C18.5 16.1719 17.8281 15.5 17 15.5C16.1719 15.5 15.5 16.1719 15.5 17C15.5 17.8281 16.1719 18.5 17 18.5Z" fill="white"/>
</svg>
