<svg width="24" height="24" viewBox="0 0 24 24" fill="none" xmlns="http://www.w3.org/2000/svg">
<path d="M17.0909 11.6364V12.3636C17.0909 12.4697 17.0568 12.5568 16.9886 12.625C16.9205 12.6932 16.8333 12.7273 16.7273 12.7273H12.7273V16.7273C12.7273 16.8333 12.6932 16.9205 12.625 16.9886C12.5568 17.0568 12.4697 17.0909 12.3636 17.0909H11.6364C11.5303 17.0909 11.4432 17.0568 11.375 16.9886C11.3068 16.9205 11.2727 16.8333 11.2727 16.7273V12.7273H7.27273C7.16667 12.7273 7.07955 12.6932 7.01136 12.625C6.94318 12.5568 6.90909 12.4697 6.90909 12.3636V11.6364C6.90909 11.5303 6.94318 11.4432 7.01136 11.375C7.07955 11.3068 7.16667 11.2727 7.27273 11.2727H11.2727V7.27273C11.2727 7.16667 11.3068 7.07955 11.375 7.01136C11.4432 6.94318 11.5303 6.90909 11.6364 6.90909H12.3636C12.4697 6.90909 12.5568 6.94318 12.625 7.01136C12.6932 7.07955 12.7273 7.16667 12.7273 7.27273V11.2727H16.7273C16.8333 11.2727 16.9205 11.3068 16.9886 11.375C17.0568 11.4432 17.0909 11.5303 17.0909 11.6364ZM18.5455 16.7273V7.27273C18.5455 6.77273 18.3674 6.3447 18.0114 5.98864C17.6553 5.63258 17.2273 5.45455 16.7273 5.45455H7.27273C6.77273 5.45455 6.3447 5.63258 5.98864 5.98864C5.63258 6.3447 5.45455 6.77273 5.45455 7.27273V16.7273C5.45455 17.2273 5.63258 17.6553 5.98864 18.0114C6.3447 18.3674 6.77273 18.5455 7.27273 18.5455H16.7273C17.2273 18.5455 17.6553 18.3674 18.0114 18.0114C18.3674 17.6553 18.5455 17.2273 18.5455 16.7273ZM20 7.27273V16.7273C20 17.6288 19.6799 18.3996 19.0398 19.0398C18.3996 19.6799 17.6288 20 16.7273 20H7.27273C6.37121 20 5.60038 19.6799 4.96023 19.0398C4.32008 18.3996 4 17.6288 4 16.7273V7.27273C4 6.37121 4.32008 5.60038 4.96023 4.96023C5.60038 4.32008 6.37121 4 7.27273 4H16.7273C17.6288 4 18.3996 4.32008 19.0398 4.96023C19.6799 5.60038 20 6.37121 20 7.27273Z" fill="white"/>
</svg>
