<svg width="24" height="24" viewBox="0 0 24 24" fill="none" xmlns="http://www.w3.org/2000/svg">
<path fill-rule="evenodd" clip-rule="evenodd" d="M17.0309 2.46888C17.1007 2.53855 17.1561 2.62132 17.1939 2.71243C17.2318 2.80355 17.2512 2.90123 17.2512 2.99988C17.2512 3.09853 17.2318 3.19622 17.1939 3.28733C17.1561 3.37845 17.1007 3.46122 17.0309 3.53088L8.56038 11.9999L17.0309 20.4689C17.1717 20.6097 17.2508 20.8007 17.2508 20.9999C17.2508 21.199 17.1717 21.3901 17.0309 21.5309C16.89 21.6717 16.699 21.7508 16.4999 21.7508C16.3007 21.7508 16.1097 21.6717 15.9689 21.5309L6.96888 12.5309C6.89903 12.4612 6.84362 12.3785 6.80581 12.2873C6.768 12.1962 6.74854 12.0985 6.74854 11.9999C6.74854 11.9012 6.768 11.8036 6.80581 11.7124C6.84362 11.6213 6.89903 11.5386 6.96888 11.4689L15.9689 2.46888C16.0385 2.39904 16.1213 2.34362 16.2124 2.30581C16.3035 2.26801 16.4012 2.24854 16.4999 2.24854C16.5985 2.24854 16.6962 2.26801 16.7873 2.30581C16.8784 2.34362 16.9612 2.39904 17.0309 2.46888V2.46888Z" fill="white"/>
</svg>
