<svg width="24" height="24" viewBox="0 0 24 24" fill="none" xmlns="http://www.w3.org/2000/svg">
<g clip-path="url(#clip0_shop_simulation)">
  <!-- 店舗の建物（オレンジ色の壁） -->
  <path d="M3 8L12 2L21 8V20H3V8Z" stroke="#FF6B35" stroke-width="1.5" fill="#FFE4D6"/>
  
  <!-- 屋根（茶色） -->
  <path d="M3 8L12 2L21 8" stroke="#8B4513" stroke-width="1.5" fill="#D2691E"/>
  
  <!-- 入口（青いドア） -->
  <rect x="10" y="14" width="4" height="6" stroke="#4169E1" stroke-width="1.5" fill="#87CEEB"/>
  
  <!-- 窓（水色のガラス） -->
  <rect x="5" y="10" width="3" height="3" stroke="#4682B4" stroke-width="1" fill="#B0E0E6"/>
  <rect x="16" y="10" width="3" height="3" stroke="#4682B4" stroke-width="1" fill="#B0E0E6"/>
  
  <!-- 看板（緑色の背景） -->
  <rect x="8" y="6" width="8" height="2" fill="#32CD32"/>
  <text x="12" y="7.5" text-anchor="middle" fill="white" font-size="1" font-family="Arial, sans-serif" font-weight="bold">SHOP</text>
  
  <!-- グラフ（経営シミュレーションを表す - 緑色の上昇線） -->
  <path d="M2 22L4 20L6 21L8 19L10 20L12 18L14 19L16 17L18 18L20 16L22 17" stroke="#228B22" stroke-width="1.5" fill="none"/>
  
  <!-- ドル記号（金色の背景） -->
  <circle cx="20" cy="4" r="1.5" fill="#FFD700"/>
  <text x="20" y="4.5" text-anchor="middle" fill="#8B4513" font-size="1" font-family="Arial, sans-serif" font-weight="bold">$</text>
  
  <!-- 装飾的な要素（花や植物） -->
  <circle cx="4" cy="21" r="0.5" fill="#FF69B4"/>
  <circle cx="6" cy="21" r="0.5" fill="#FF69B4"/>
  <circle cx="8" cy="21" r="0.5" fill="#FF69B4"/>
  
  <!-- 煙突（茶色） -->
  <rect x="17" y="4" width="2" height="4" fill="#8B4513"/>
  <rect x="16.5" y="3" width="3" height="1" fill="#A0522D"/>
</g>
<defs>
<clipPath id="clip0_shop_simulation">
<rect width="24" height="24" fill="white"/>
</clipPath>
</defs>
</svg> 