<svg width="24" height="24" viewBox="0 0 24 24" fill="none" xmlns="http://www.w3.org/2000/svg">
<path fill-rule="evenodd" clip-rule="evenodd" d="M19.54 8.42581V8.50282L19.5505 8.53391C19.5743 8.60464 19.5909 8.67761 19.6 8.75169V18.8C19.6 19.5426 19.305 20.2548 18.7799 20.7799C18.2548 21.305 17.5426 21.6 16.8 21.6H6.8C6.05739 21.6 5.3452 21.305 4.8201 20.7799C4.295 20.2548 4 19.5426 4 18.8V4.8C4 4.05739 4.295 3.3452 4.8201 2.8201C5.3452 2.295 6.05739 2 6.8 2H12.8365C12.9225 2.01251 13.0056 2.04097 13.0813 2.08394L13.1415 2.11813L13.21 2.10774C13.2127 2.10733 13.2153 2.10704 13.218 2.10685C13.2883 2.14245 13.353 2.18827 13.41 2.24286L19.4071 8.23997C19.4601 8.2953 19.5049 8.35789 19.54 8.42581ZM16.8728 8L13.6 4.72716V6.8C13.6 7.11826 13.7264 7.42348 13.9515 7.64853C14.1765 7.87357 14.4817 8 14.8 8H16.8728ZM12 6.8V3.6H6.8C6.48174 3.6 6.17652 3.72643 5.95147 3.95147C5.72643 4.17652 5.6 4.48174 5.6 4.8V18.8C5.6 19.1183 5.72643 19.4235 5.95147 19.6485C6.17652 19.8736 6.48174 20 6.8 20H16.8C17.1183 20 17.4235 19.8736 17.6485 19.6485C17.8736 19.4235 18 19.1183 18 18.8V9.6H14.8C14.0574 9.6 13.3452 9.305 12.8201 8.7799C12.295 8.2548 12 7.54261 12 6.8ZM9.8 9.6H8.8C8.58783 9.6 8.38434 9.51571 8.23431 9.36569C8.08429 9.21566 8 9.01217 8 8.8C8 8.58783 8.08429 8.38434 8.23431 8.23431C8.38434 8.08429 8.58783 8 8.8 8H9.8C10.0122 8 10.2157 8.08429 10.3657 8.23431C10.5157 8.38434 10.6 8.58783 10.6 8.8C10.6 9.01217 10.5157 9.21566 10.3657 9.36569C10.2157 9.51571 10.0122 9.6 9.8 9.6ZM8.23431 12.2343C8.38434 12.0843 8.58783 12 8.8 12H14.8C15.0122 12 15.2157 12.0843 15.3657 12.2343C15.5157 12.3843 15.6 12.5878 15.6 12.8C15.6 13.0122 15.5157 13.2157 15.3657 13.3657C15.2157 13.5157 15.0122 13.6 14.8 13.6H8.8C8.58783 13.6 8.38434 13.5157 8.23431 13.3657C8.08429 13.2157 8 13.0122 8 12.8C8 12.5878 8.08429 12.3843 8.23431 12.2343ZM8.23431 16.2343C8.38434 16.0843 8.58783 16 8.8 16H14.8C15.0122 16 15.2157 16.0843 15.3657 16.2343C15.5157 16.3843 15.6 16.5878 15.6 16.8C15.6 17.0122 15.5157 17.2157 15.3657 17.3657C15.2157 17.5157 15.0122 17.6 14.8 17.6H8.8C8.58783 17.6 8.38434 17.5157 8.23431 17.3657C8.08429 17.2157 8 17.0122 8 16.8C8 16.5878 8.08429 16.3843 8.23431 16.2343Z" fill="white"/>
</svg>
