<svg width="24" height="24" viewBox="0 0 24 24" fill="none" xmlns="http://www.w3.org/2000/svg">
<path d="M4.5 6.875C4.15625 6.875 3.875 7.15625 3.875 7.5V8.36328L10.6133 13.8945C11.4219 14.5586 12.582 14.5586 13.3906 13.8945L20.125 8.36328V7.5C20.125 7.15625 19.8438 6.875 19.5 6.875H4.5ZM3.875 10.7891V17.5C3.875 17.8438 4.15625 18.125 4.5 18.125H19.5C19.8438 18.125 20.125 17.8438 20.125 17.5V10.7891L14.5781 15.3437C13.0781 16.5742 10.918 16.5742 9.42188 15.3437L3.875 10.7891ZM2 7.5C2 6.12109 3.12109 5 4.5 5H19.5C20.8789 5 22 6.12109 22 7.5V17.5C22 18.8789 20.8789 20 19.5 20H4.5C3.12109 20 2 18.8789 2 17.5V7.5Z" fill="white"/>
</svg>
